{
  "accessors": [
    {
      "bufferView": 2,
      "componentType": 5126,
      "count": 6066,
      "max": [
        0.99988812208175659,
        1,
        0.037253130227327347
      ],
      "min": [
        -0.99988806247711182,
        -0.99955248832702637,
        -0.037253130227327347
      ],
      "type": "VEC3"
    },
    {
      "bufferView": 2,
      "byteOffset": 72792,
      "componentType": 5126,
      "count": 6066,
      "max": [
        0.99988818168640137,
        1,
        1
      ],
      "min": [
        -0.99988818168640137,
        -1,
        -1
      ],
      "type": "VEC3"
    },
    {
      "bufferView": 3,
      "componentType": 5126,
      "count": 6066,
      "max": [
        1,
        0.99990218877792358,
        1,
        1
      ],
      "min": [
        -1,
        -0.99988818168640137,
        -1,
        -1
      ],
      "type": "VEC4"
    },
    {
      "bufferView": 1,
      "componentType": 5126,
      "count": 6066,
      "max": [
        0.97973340749740601,
        0.93358916044235229
      ],
      "min": [
        0.014377241022884846,
        0.062115192413330078
      ],
      "type": "VEC2"
    },
    {
      "bufferView": 0,
      "componentType": 5125,
      "count": 28968,
      "max": [
        6065
      ],
      "min": [
        0
      ],
      "type": "SCALAR"
    }
  ],
  "asset": {
    "extras": {
      "author": "cloudstorm (https://sketchfab.com/cloudstormchnl)",
      "license": "CC-BY-4.0 (http://creativecommons.org/licenses/by/4.0/)",
      "source": "https://sketchfab.com/3d-models/1-euro-coin-portuguese-version-904d9540c5014f0994e5b236034fa770",
      "title": "1 Euro coin Portuguese version"
    },
    "generator": "Sketchfab-7.17.0",
    "version": "2.0"
  },
  "bufferViews": [
    {
      "buffer": 0,
      "byteLength": 115872,
      "byteOffset": 0,
      "name": "floatBufferViews",
      "target": 34963
    },
    {
      "buffer": 0,
      "byteLength": 48528,
      "byteOffset": 115872,
      "byteStride": 8,
      "name": "floatBufferViews",
      "target": 34962
    },
    {
      "buffer": 0,
      "byteLength": 145584,
      "byteOffset": 164400,
      "byteStride": 12,
      "name": "floatBufferViews",
      "target": 34962
    },
    {
      "buffer": 0,
      "byteLength": 97056,
      "byteOffset": 309984,
      "byteStride": 16,
      "name": "floatBufferViews",
      "target": 34962
    }
  ],
  "buffers": [
    {
      "byteLength": 407040,
      "uri": "scene.bin"
    }
  ],
  "images": [
    {
      "uri": "textures/Material.001_baseColor.png"
    }
  ],
  "materials": [
    {
      "doubleSided": true,
      "emissiveFactor": [
        0,
        0,
        0
      ],
      "name": "Material.001",
      "pbrMetallicRoughness": {
        "baseColorFactor": [
          1,
          1,
          1,
          1
        ],
        "baseColorTexture": {
          "index": 0,
          "texCoord": 0
        },
        "metallicFactor": 1,
        "roughnessFactor": 0.70322914123535152
      }
    }
  ],
  "meshes": [
    {
      "name": "coin_Material.001_0",
      "primitives": [
        {
          "attributes": {
            "NORMAL": 1,
            "POSITION": 0,
            "TANGENT": 2,
            "TEXCOORD_0": 3
          },
          "indices": 4,
          "material": 0,
          "mode": 4
        }
      ]
    }
  ],
  "nodes": [
    {
      "children": [
        1
      ],
      "name": "RootNode (gltf orientation matrix)",
      "rotation": [
        -0.70710678118654746,
        -0,
        -0,
        0.70710678118654757
      ]
    },
    {
      "children": [
        2
      ],
      "name": "RootNode (model correction matrix)"
    },
    {
      "children": [
        3
      ],
      "matrix": [
        1,
        0,
        0,
        0,
        0,
        0,
        1,
        0,
        0,
        -1,
        0,
        0,
        0,
        0,
        0,
        1
      ],
      "name": "47a1a05b28124a46bfd2b311e4f80d40.fbx"
    },
    {
      "children": [
        4
      ],
      "name": "RootNode"
    },
    {
      "children": [
        5
      ],
      "matrix": [
        45.172836303710938,
        0,
        0,
        0,
        0,
        45.172836303710895,
        1.9745673876847597e-06,
        0,
        0,
        -1.9745673876847597e-06,
        45.172836303710895,
        0,
        0,
        110.58419036865234,
        0,
        1
      ],
      "name": "coin"
    },
    {
      "mesh": 0,
      "name": "coin_Material.001_0"
    }
  ],
  "samplers": [
    {
      "magFilter": 9729,
      "minFilter": 9987,
      "wrapS": 10497,
      "wrapT": 10497
    }
  ],
  "scene": 0,
  "scenes": [
    {
      "name": "OSG_Scene",
      "nodes": [
        0
      ]
    }
  ],
  "textures": [
    {
      "sampler": 0,
      "source": 0
    }
  ]
}

